<svg width="18" height="18" viewBox="0 0 18 18" fill="none" xmlns="http://www.w3.org/2000/svg">
<path d="M16.8369 2.05622H14.7641V1.35742C14.7641 1.22007 14.7112 1.09537 14.6251 1.00154C14.5287 0.896418 14.3906 0.830078 14.2368 0.830078C14.0829 0.830078 13.9448 0.896383 13.8484 1.00154C13.7624 1.09537 13.7094 1.22007 13.7094 1.35742V2.05622H4.29054V1.35742C4.29054 1.22007 4.23759 1.09537 4.15153 1.00154C4.05513 0.896418 3.91707 0.830078 3.7632 0.830078C3.60932 0.830078 3.47126 0.896383 3.37486 1.00154C3.2888 1.09537 3.23585 1.22007 3.23585 1.35742V2.05622H1.16304C0.521754 2.05622 0 2.57798 0 3.2193V16.0069C0 16.6482 0.521754 17.1699 1.16304 17.1699H16.8369C17.4782 17.1699 18 16.6482 18 16.0069V3.2193C18 2.57798 17.4782 2.05622 16.8369 2.05622ZM5.07962 13.5509C5.28557 13.7569 5.28557 14.0908 5.07962 14.2967C4.97665 14.3997 4.84168 14.4512 4.70675 14.4512C4.57182 14.4512 4.43682 14.3997 4.33389 14.2967L3.70983 13.6727L3.08577 14.2967C2.9828 14.3997 2.84783 14.4512 2.7129 14.4512C2.57797 14.4512 2.44297 14.3997 2.34003 14.2967C2.13409 14.0908 2.13409 13.7569 2.34003 13.5509L2.96409 12.9269L2.34003 12.3028C2.13409 12.0969 2.13409 11.763 2.34003 11.5571C2.54595 11.3511 2.87986 11.3511 3.0858 11.5571L3.70986 12.1811L4.33392 11.5571C4.53983 11.3511 4.87375 11.3511 5.07969 11.5571C5.28564 11.763 5.28564 12.0969 5.07969 12.3028L4.45563 12.9269L5.07962 13.5509ZM5.07962 7.61682C5.28557 7.82273 5.28557 8.15664 5.07962 8.36259C4.97665 8.46556 4.84165 8.51706 4.70675 8.51706C4.57179 8.51706 4.43682 8.46559 4.33389 8.36259L3.70983 7.73849L3.08577 8.36259C2.9828 8.46556 2.84783 8.51706 2.7129 8.51706C2.57797 8.51706 2.44297 8.46556 2.34003 8.36259C2.13409 8.15668 2.13409 7.82276 2.34003 7.61682L2.96413 6.99272L2.34003 6.36863C2.13409 6.16272 2.13409 5.8288 2.34003 5.62286C2.54595 5.41691 2.87986 5.41691 3.0858 5.62286L3.70986 6.24695L4.33392 5.62286C4.53983 5.41695 4.87375 5.41695 5.07969 5.62286C5.28564 5.82877 5.28564 6.16268 5.07969 6.36863L4.4556 6.99272L5.07962 7.61682ZM10.3698 13.5509C10.5758 13.7569 10.5758 14.0908 10.3698 14.2967C10.2669 14.3997 10.1319 14.4512 9.99696 14.4512C9.86203 14.4512 9.72703 14.3997 9.62409 14.2967L9 13.6726L8.37594 14.2967C8.27297 14.3997 8.138 14.4512 8.00307 14.4512C7.86814 14.4512 7.73314 14.3997 7.63021 14.2967C7.42426 14.0908 7.42426 13.7569 7.63021 13.5509L8.25427 12.9269L7.63021 12.3028C7.42426 12.0969 7.42426 11.763 7.63021 11.557C7.83612 11.3511 8.17003 11.3511 8.37598 11.557L9 12.1811L9.62406 11.557C9.82997 11.3511 10.1639 11.3511 10.3698 11.557C10.5758 11.7629 10.5758 12.0968 10.3698 12.3028L9.74577 12.9269L10.3698 13.5509ZM10.3698 7.61682C10.5758 7.82273 10.5758 8.15664 10.3698 8.36259C10.2669 8.46556 10.1319 8.51706 9.99696 8.51706C9.862 8.51706 9.72703 8.46559 9.62409 8.36259L9 7.73849L8.37594 8.36259C8.27297 8.46556 8.138 8.51706 8.00307 8.51706C7.86814 8.51706 7.73314 8.46556 7.63021 8.36259C7.42426 8.15668 7.42426 7.82276 7.63021 7.61682L8.2543 6.99272L7.63021 6.36863C7.42426 6.16272 7.42426 5.8288 7.63021 5.62286C7.83615 5.41691 8.17007 5.41691 8.37598 5.62286L9 6.24695L9.62406 5.62286C9.82997 5.41695 10.1639 5.41695 10.3698 5.62286C10.5758 5.82877 10.5758 6.16268 10.3698 6.36863L9.74573 6.99272L10.3698 7.61682ZM15.66 13.5509C15.8659 13.7569 15.8659 14.0908 15.66 14.2967C15.557 14.3997 15.4221 14.4512 15.2871 14.4512C15.1522 14.4512 15.0172 14.3997 14.9143 14.2967L14.2902 13.6727L13.6661 14.2967C13.5632 14.3997 13.4282 14.4512 13.2933 14.4512C13.1584 14.4512 13.0234 14.3997 12.9204 14.2967C12.7145 14.0908 12.7145 13.7569 12.9204 13.5509L13.5445 12.9269L12.9204 12.3028C12.7145 12.0969 12.7145 11.763 12.9204 11.5571C13.1263 11.3511 13.4602 11.3511 13.6662 11.5571L14.2902 12.1811L14.9143 11.5571C15.1202 11.3511 15.4541 11.3511 15.6601 11.5571C15.866 11.763 15.866 12.0969 15.6601 12.3028L15.036 12.9269L15.66 13.5509ZM15.66 7.61682C15.8659 7.82273 15.8659 8.15664 15.66 8.36259C15.557 8.46556 15.422 8.51706 15.2871 8.51706C15.1522 8.51706 15.0172 8.46559 14.9143 8.36259L14.2902 7.73849L13.6661 8.36259C13.5632 8.46556 13.4282 8.51706 13.2933 8.51706C13.1584 8.51706 13.0234 8.46556 12.9204 8.36259C12.7145 8.15668 12.7145 7.82276 12.9204 7.61682L13.5445 6.99272L12.9204 6.36863C12.7145 6.16272 12.7145 5.8288 12.9204 5.62286C13.1264 5.41691 13.4603 5.41691 13.6662 5.62286L14.2902 6.24695L14.9143 5.62286C15.1202 5.41695 15.4541 5.41695 15.6601 5.62286C15.866 5.82877 15.866 6.16268 15.6601 6.36863L15.036 6.99272L15.66 7.61682Z" fill="white"/>
</svg>
