<svg width="18" height="18" viewBox="0 0 18 18" fill="none" xmlns="http://www.w3.org/2000/svg">
  <path d="M17.1819 1.63637H14.7274V0.818187C14.7274 0.601191 14.6412 0.393081 14.4877 0.239641C14.3343 0.0862016 14.1262 0 13.9092 0C13.6922 0 13.4841 0.0862016 13.3306 0.239641C13.1772 0.393081 13.091 0.601191 13.091 0.818187V1.63637H9.81825V0.818187C9.81825 0.601191 9.73204 0.393081 9.5786 0.239641C9.42516 0.0862016 9.21706 0 9.00006 0C8.78306 0 8.57495 0.0862016 8.42151 0.239641C8.26807 0.393081 8.18187 0.601191 8.18187 0.818187V1.63637H4.90912V0.818187C4.90912 0.601191 4.82292 0.393081 4.66948 0.239641C4.51604 0.0862016 4.30793 0 4.09094 0C3.87394 0 3.66583 0.0862016 3.51239 0.239641C3.35895 0.393081 3.27275 0.601191 3.27275 0.818187V1.63637H0.818187C0.60119 1.63637 0.393081 1.72258 0.239641 1.87602C0.0862016 2.02946 0 2.23757 0 2.45456V6.5455H18.0001V2.45456C18.0001 2.23757 17.9139 2.02946 17.7605 1.87602C17.607 1.72258 17.3989 1.63637 17.1819 1.63637Z" fill="white"/>
  <path d="M0 17.1817C0 17.3987 0.0862016 17.6068 0.239641 17.7602C0.393081 17.9137 0.60119 17.9999 0.818187 17.9999H17.1819C17.3989 17.9999 17.607 17.9137 17.7605 17.7602C17.9139 17.6068 18.0001 17.3987 18.0001 17.1817V8.18164H0V17.1817Z" fill="white"/>
</svg>
